<svg width="145" height="65" viewBox="0 0 145 65" fill="none" xmlns="http://www.w3.org/2000/svg">
<path d="M139.225 63.0793H140.63V61.3122L141.488 60.3902L143.361 63.0025H145L142.425 59.3914L144.922 56.9327H143.205L140.63 59.6219V54.551H139.225V63.0793ZM134.386 63.0793H135.791V60.7744C135.791 59.1609 136.65 58.3926 137.898 58.3926H137.976V56.8559C136.884 56.7791 136.181 57.4706 135.791 58.3157V56.9327H134.386V63.0793ZM129.626 62.0037C128.533 62.0037 127.753 61.0817 127.753 60.006C127.753 58.9304 128.455 58.0852 129.626 58.0852C130.718 58.0852 131.499 59.0072 131.499 60.0829C131.499 61.1585 130.796 62.0037 129.626 62.0037ZM129.626 63.233C131.577 63.233 132.982 61.7732 132.982 60.0829C132.982 58.3157 131.577 56.9327 129.704 56.9327C127.831 56.9327 126.426 58.3926 126.426 60.1597C126.348 61.85 127.753 63.233 129.626 63.233ZM118.31 63.1561H119.559L120.963 59.0072L122.368 63.1561H123.617L125.646 57.0096H124.241L122.992 61.1585L121.588 56.9327H120.417L119.012 61.1585L117.764 57.0096H116.281L118.31 63.1561ZM114.096 63.233C114.642 63.233 115.032 63.1561 115.344 62.9257V61.7732C115.032 61.9268 114.798 62.0037 114.486 62.0037C114.018 62.0037 113.706 61.7732 113.706 61.2353V58.2389H115.344V57.0096H113.706V55.3193H112.301V57.0096H111.52V58.2389H112.301V61.4658C112.301 62.772 113.081 63.233 114.096 63.233ZM105.979 59.6219C106.136 58.6999 106.682 58.0084 107.618 58.0084C108.555 58.0084 109.101 58.6999 109.179 59.6219H105.979ZM107.774 63.233C108.945 63.233 109.725 62.772 110.272 62.0805L109.413 61.389C108.945 61.85 108.399 62.0805 107.696 62.0805C106.76 62.0805 106.057 61.5427 105.901 60.5439H110.428C110.428 60.3902 110.428 60.3134 110.428 60.1597C110.428 58.3926 109.413 56.8559 107.462 56.8559C105.667 56.8559 104.419 58.3157 104.419 60.006C104.575 61.9268 105.979 63.233 107.774 63.233ZM95.8341 63.0793H97.2389V57.3169L101.765 63.0793H102.936V55.0119H101.531V60.6207L97.1608 55.0119H95.8341V63.0793ZM89.4348 63.233C89.9811 63.233 90.3713 63.1561 90.6834 62.9257V61.7732C90.3713 61.9268 90.1372 62.0037 89.825 62.0037C89.3567 62.0037 89.0446 61.7732 89.0446 61.2353V58.2389H90.6834V57.0096H89.0446V55.3193H87.6398V57.0096H86.8594V58.2389H87.6398V61.4658C87.6398 62.772 88.3422 63.233 89.4348 63.233ZM80.0699 63.0793H81.4746V59.6219C81.4746 58.6999 82.0209 58.0852 82.8793 58.0852C83.7378 58.0852 84.206 58.6231 84.206 59.545V63.0025H85.6108V59.084C85.6108 57.6242 84.8304 56.7023 83.4256 56.7023C82.4892 56.7023 81.8648 57.1632 81.4746 57.7779V54.4741H80.0699V63.0793ZM75.0753 61.4658C74.1388 61.4658 73.2803 60.7744 73.2803 59.7755C73.2803 58.7767 74.0607 58.0852 75.0753 58.0852C76.0898 58.0852 76.8702 58.7767 76.8702 59.7755C76.8702 60.7744 76.0898 61.4658 75.0753 61.4658ZM74.9192 65.0001C76.0118 65.0001 76.8702 64.7696 77.4945 64.155C78.0408 63.6171 78.2749 62.8488 78.2749 61.85V57.0096H76.8702V57.9316C76.402 57.3169 75.6996 56.8559 74.6851 56.8559C73.2023 56.8559 71.8756 57.9316 71.8756 59.6987C71.8756 61.4658 73.2023 62.5415 74.6851 62.5415C75.6996 62.5415 76.3239 62.0805 76.8702 61.389V61.85C76.8702 63.0793 76.1678 63.694 74.9192 63.694C74.0607 63.694 73.3584 63.4635 72.734 63.0793L72.1878 64.155C72.9682 64.6928 73.9046 65.0001 74.9192 65.0001ZM68.91 63.0793H70.3148V57.0096H68.91V63.0793ZM68.832 56.0876H70.3928V54.7815H68.832V56.0876ZM62.8228 59.6219C62.9789 58.6999 63.5252 58.0084 64.4617 58.0084C65.3982 58.0084 65.9445 58.6999 66.0225 59.6219H62.8228ZM64.6178 63.233C65.7884 63.233 66.5688 62.772 67.1151 62.0805L66.2566 61.389C65.7884 61.85 65.2421 62.0805 64.5397 62.0805C63.6033 62.0805 62.9009 61.5427 62.7448 60.5439H67.2712C67.2712 60.3902 67.2712 60.3134 67.2712 60.1597C67.2712 58.3926 66.2566 56.8559 64.3056 56.8559C62.5107 56.8559 61.262 58.3157 61.262 60.006C61.4181 61.9268 62.8228 63.233 64.6178 63.233ZM57.1259 63.0793H58.5306V60.7744C58.5306 59.1609 59.389 58.3926 60.6377 58.3926H60.7157V56.8559C59.6232 56.8559 58.9208 57.4706 58.5306 58.3926V57.0096H57.1259V63.0793ZM49.5559 63.0793H51.0387V59.7755H55.1748V58.4694H51.0387V56.2413H55.7211V54.9351H49.6339V63.0793H49.5559ZM42.142 63.233C43.4687 63.233 44.4052 62.6183 44.4052 61.3122C44.4052 60.2365 43.3907 59.7755 42.4542 59.545C41.7518 59.3145 41.0494 59.1609 41.0494 58.6999C41.0494 58.3157 41.3616 58.0852 41.9079 58.0852C42.4542 58.0852 43.0785 58.3157 43.6248 58.6999L44.1711 57.7011C43.5467 57.2401 42.6883 57.0096 41.9079 57.0096C40.8153 56.8559 39.8008 57.6242 39.8008 58.7767C39.8008 59.9292 40.8153 60.3134 41.7518 60.5439C42.4542 60.7744 43.1565 60.928 43.1565 61.389C43.1565 61.7732 42.7663 62.0805 42.22 62.0805C41.5957 62.0805 40.8934 61.85 40.191 61.3122L39.5667 62.2342C40.269 62.9257 41.2836 63.233 42.142 63.233ZM36.367 63.233C37.6937 63.233 38.6302 62.6183 38.6302 61.3122C38.6302 60.2365 37.6156 59.7755 36.6791 59.545C35.9768 59.3145 35.2744 59.1609 35.2744 58.6999C35.2744 58.3157 35.5866 58.0852 36.1329 58.0852C36.6791 58.0852 37.3035 58.3157 37.8498 58.6999L38.396 57.7011C37.7717 57.2401 36.9133 57.0096 36.1329 57.0096C34.8842 57.0096 33.9477 57.7011 33.9477 58.8535C33.9477 60.006 34.9622 60.3902 35.8987 60.6207C36.6011 60.8512 37.3035 61.0048 37.3035 61.4658C37.3035 61.85 36.9133 62.1573 36.367 62.1573C35.7426 62.1573 35.0403 61.9268 34.3379 61.389L33.7136 62.311C34.494 62.9257 35.5085 63.233 36.367 63.233ZM28.2507 59.6219C28.4068 58.6999 28.9531 58.0084 29.8896 58.0084C30.8261 58.0084 31.3724 58.6999 31.4504 59.6219H28.2507ZM29.9676 63.233C31.1382 63.233 31.9186 62.772 32.4649 62.0805L31.6065 61.389C31.1382 61.85 30.592 62.0805 29.8896 62.0805C28.9531 62.0805 28.2507 61.5427 28.0946 60.5439H32.7771C32.7771 60.3902 32.7771 60.3134 32.7771 60.1597C32.7771 58.3926 31.7626 56.8559 29.8115 56.8559C28.0166 56.8559 26.7679 58.3157 26.7679 60.006C26.846 61.9268 28.1727 63.233 29.9676 63.233ZM22.5537 63.0793H23.9585V60.7744C23.9585 59.1609 24.8169 58.3926 26.0656 58.3926H26.1436V56.8559C25.0511 56.7791 24.3487 57.4706 23.9585 58.3157V56.9327H22.5537V63.0793ZM17.8713 62.0037C16.9348 62.0037 16.0763 61.2353 16.0763 60.0829C16.0763 58.9304 16.9348 58.1621 17.8713 58.1621C18.8078 58.1621 19.6662 58.9304 19.6662 60.0829C19.5882 61.2353 18.8078 62.0037 17.8713 62.0037ZM14.6716 64.9233H16.0763V62.1573C16.5446 62.6952 17.1689 63.233 18.1835 63.233C19.6662 63.233 21.071 62.0805 21.071 60.0829C21.071 58.0852 19.6662 56.9327 18.1835 56.9327C17.1689 56.9327 16.5446 57.4706 16.0763 58.0852V57.0864H14.6716V64.9233ZM7.33577 63.0793H8.81855L10.3013 60.928L11.8621 63.0793H13.423L11.1598 59.9292L13.3449 56.9327H11.8621L10.4574 58.9304L9.05267 56.9327H7.49185L9.67699 59.9292L7.33577 63.0793ZM0.156006 63.0793H6.32124V61.7732H1.56074V59.6219H5.69691V58.3926H1.56074V56.3181H6.2432V55.0119H0.156006V63.0793Z" fill="white"/>
<path d="M113.237 49.5567H130.094V13.9835H144.922V0H98.4876V13.9835H113.315V49.5567H113.237ZM65.8665 37.0331V29.6572H74.373C78.0409 29.6572 79.8359 31.117 79.8359 33.2683V33.422C79.8359 35.5733 77.9629 37.0331 74.2949 37.0331H65.8665ZM65.8665 19.4385V12.5236H73.1243C76.7142 12.5236 78.5092 13.753 78.5092 15.9043V16.0579C78.5092 18.2861 76.7923 19.4385 73.2024 19.4385H65.8665ZM49.4779 49.5567H77.3385C90.0592 49.5567 96.6927 43.7175 96.6927 35.8038V35.6501C96.6927 28.8889 92.5565 25.4314 86.0791 23.5875C91.464 21.7435 95.0538 18.1324 95.0538 12.2931V12.1395C95.0538 8.75887 93.7271 6.2234 91.9322 4.45627C88.9666 1.53664 84.5963 0 77.6507 0H49.4779V49.5567ZM16.8568 24.279V13.2151H21.4613C25.9096 13.2151 28.563 15.0591 28.563 18.6702V18.8239C28.563 22.3582 25.6755 24.279 21.3832 24.279H16.8568ZM0 49.5567H16.8568V36.1111H22.3197C35.8988 36.1111 45.1857 29.734 45.1857 17.7482V17.5946C45.1857 5.83924 36.0549 0 22.6319 0H0V49.5567Z" fill="white"/>
</svg>
