<svg width="16" height="24" viewBox="0 0 16 24" fill="none" xmlns="http://www.w3.org/2000/svg">
<path d="M14.7999 1.60007H9.99994L10.7199 0.640075C10.8527 0.463675 10.8167 0.212875 10.6399 0.0804749C10.4635 -0.0519251 10.2127 -0.0163251 10.0803 0.160475L8.99994 1.60007H7.04714L6.35754 0.221275C6.25834 0.0236749 6.01834 -0.0555251 5.82074 0.0424749C5.62314 0.141275 5.54314 0.381675 5.64194 0.579275L6.15274 1.60007H1.19994C0.538339 1.60007 -6.10352e-05 2.13847 -6.10352e-05 2.80008V22.8001C-6.10352e-05 23.4617 0.538339 24.0001 1.19994 24.0001H14.7999C15.4615 24.0001 15.9999 23.4617 15.9999 22.8001V2.80008C15.9999 2.13847 15.4615 1.60007 14.7999 1.60007ZM15.1999 22.8001C15.1999 23.0209 15.0207 23.2001 14.7999 23.2001H1.19994C0.979139 23.2001 0.799939 23.0209 0.799939 22.8001V2.80008C0.799939 2.57928 0.979139 2.40007 1.19994 2.40007H6.55274L6.95274 3.20008C6.61674 3.49368 6.39994 3.91967 6.39994 4.40007C6.39994 5.28247 7.11754 6.00007 7.99994 6.00007C8.88234 6.00007 9.59994 5.28247 9.59994 4.40007C9.59994 3.51767 8.88234 2.80008 7.99994 2.80008C7.88514 2.80008 7.77354 2.81328 7.66554 2.83648L7.44714 2.40007H14.7999C15.0207 2.40007 15.1999 2.57928 15.1999 2.80008V22.8001ZM7.33274 3.96047L7.64194 4.57887C7.71234 4.71927 7.85354 4.80007 8.00034 4.80007C8.06034 4.80007 8.12154 4.78648 8.17874 4.75808C8.37634 4.65928 8.45634 4.41888 8.35754 4.22128L8.04954 3.60527C8.46714 3.63127 8.79994 3.97607 8.79994 4.40007C8.79994 4.84127 8.44114 5.20007 7.99994 5.20007C7.55874 5.20007 7.19994 4.84127 7.19994 4.40007C7.19994 4.23767 7.24914 4.08687 7.33274 3.96047Z" fill="#0E4C6D"/>
<path d="M12.7272 15.2002H3.27265C3.01124 15.2002 2.79993 15.379 2.79993 15.6002C2.79993 15.8214 3.01124 16.0002 3.27265 16.0002H12.7272C12.9886 16.0002 13.1999 15.8214 13.1999 15.6002C13.1999 15.379 12.9886 15.2002 12.7272 15.2002Z" fill="#0E4C6D"/>
<path d="M12.7272 17.6001H3.27265C3.01124 17.6001 2.79993 17.7789 2.79993 18.0001C2.79993 18.2213 3.01124 18.4001 3.27265 18.4001H12.7272C12.9886 18.4001 13.1999 18.2213 13.1999 18.0001C13.1999 17.7789 12.9886 17.6001 12.7272 17.6001Z" fill="#0E4C6D"/>
<path d="M12.7272 20H3.27265C3.01124 20 2.79993 20.1788 2.79993 20.4C2.79993 20.6212 3.01124 20.8 3.27265 20.8H12.7272C12.9886 20.8 13.1999 20.6212 13.1999 20.4C13.1999 20.1788 12.9886 20 12.7272 20Z" fill="#0E4C6D"/>
<path d="M12.7272 8H3.27265C3.01124 8 2.79993 8.1788 2.79993 8.4C2.79993 8.6212 3.01124 8.8 3.27265 8.8H12.7272C12.9886 8.8 13.1999 8.6212 13.1999 8.4C13.1999 8.1788 12.9886 8 12.7272 8Z" fill="#0E4C6D"/>
<path d="M12.7272 10.3999H3.27265C3.01124 10.3999 2.79993 10.5787 2.79993 10.7999C2.79993 11.0211 3.01124 11.1999 3.27265 11.1999H12.7272C12.9886 11.1999 13.1999 11.0211 13.1999 10.7999C13.1999 10.5787 12.9886 10.3999 12.7272 10.3999Z" fill="#0E4C6D"/>
<path d="M12.7272 12.8003H3.27265C3.01124 12.8003 2.79993 12.9791 2.79993 13.2003C2.79993 13.4215 3.01124 13.6003 3.27265 13.6003H12.7272C12.9886 13.6003 13.1999 13.4215 13.1999 13.2003C13.1999 12.9791 12.9886 12.8003 12.7272 12.8003Z" fill="#0E4C6D"/>
</svg>
